<svg width="131" height="38" viewBox="0 0 131 38" fill="none" xmlns="http://www.w3.org/2000/svg">
<rect x="0.0254845" y="0.5635" width="20.1684" height="17.1722" rx="5.5" transform="matrix(0.850364 0.526194 -0.799395 0.600805 16.7536 10.795)" fill="#F2994A" stroke="#FFD4AD"/>
<rect x="0.0254845" y="0.5635" width="20.1684" height="17.1722" rx="5.5" transform="matrix(0.850364 0.526194 -0.799395 0.600805 15.8975 5.9713)" fill="#EB5757" stroke="#FF8D8D"/>
<rect x="0.0254845" y="0.5635" width="20.1684" height="17.1722" rx="5.5" transform="matrix(0.850364 0.526194 -0.799395 0.600805 16.0954 1.15783)" fill="#6E4FAE" stroke="#9879D0"/>
<path d="M35.5515 20.1201L35.0353 29.2893C34.8366 32.8161 34.7378 34.5795 33.767 35.6545C32.7961 36.7296 31.3034 36.7309 28.3168 36.7309H27.448C24.4625 36.7309 22.9698 36.7309 21.9978 35.6545C21.027 34.5795 20.9282 32.8161 20.7295 29.2893L20.2133 20.1201" fill="#F2F2F2"/>
<path d="M35.5515 20.1201L35.0353 29.2893C34.8366 32.8161 34.7378 34.5795 33.767 35.6545C32.7961 36.7296 31.3034 36.7309 28.3168 36.7309H27.448C24.4625 36.7309 22.9698 36.7309 21.9978 35.6545C21.027 34.5795 20.9282 32.8161 20.7295 29.2893L20.2133 20.1201" stroke="black" stroke-width="1.5" stroke-linecap="round"/>
<path d="M22.7782 2.12198L36.8524 11.6497" stroke="white" stroke-width="1.5" stroke-linecap="round"/>
<path opacity="0.5" d="M25.0764 23.4424L25.6376 30.0867M30.6883 23.4424L30.1271 30.0867" stroke="black" stroke-width="1.5" stroke-linecap="round"/>
<path opacity="0.5" d="M28.1404 3.77709C28.6924 3.19427 29.3689 2.82528 30.0766 2.72099C30.7844 2.6167 31.4885 2.78224 32.0921 3.19479C32.6956 3.60734 33.1688 4.24659 33.4464 5.02443C33.7239 5.80227 33.7923 6.6804 33.642 7.53776" stroke="white" stroke-width="1.5" stroke-linecap="round"/>
<path d="M47.8021 26.1584C46.5087 26.1584 45.3687 25.865 44.3821 25.2784C43.3954 24.6784 42.6221 23.8317 42.0621 22.7384C41.5021 21.6317 41.2221 20.305 41.2221 18.7584C41.2221 17.2384 41.4954 15.925 42.0421 14.8184C42.5887 13.6984 43.3554 12.8384 44.3421 12.2384C45.3287 11.625 46.4887 11.3184 47.8221 11.3184C49.6354 11.3184 51.0421 11.7717 52.0421 12.6784C53.0421 13.5717 53.6954 14.825 54.0021 16.4384L51.2821 16.5784C51.1087 15.645 50.7354 14.9117 50.1621 14.3784C49.5887 13.845 48.8087 13.5784 47.8221 13.5784C47.0221 13.5784 46.3287 13.7917 45.7421 14.2184C45.1554 14.645 44.7021 15.245 44.3821 16.0184C44.0621 16.7917 43.9021 17.705 43.9021 18.7584C43.9021 19.825 44.0621 20.745 44.3821 21.5184C44.7154 22.2784 45.1754 22.865 45.7621 23.2784C46.3487 23.6917 47.0287 23.8984 47.8021 23.8984C48.8554 23.8984 49.6687 23.6117 50.2421 23.0384C50.8287 22.4517 51.2021 21.6517 51.3621 20.6384L54.0821 20.7784C53.8954 21.885 53.5354 22.845 53.0021 23.6584C52.4687 24.4584 51.7621 25.0784 50.8821 25.5184C50.0154 25.945 48.9887 26.1584 47.8021 26.1584ZM59.6989 26.0784C58.6456 26.0784 57.7189 25.8517 56.9189 25.3984C56.1323 24.9317 55.5189 24.2784 55.0789 23.4384C54.6523 22.5984 54.4389 21.6184 54.4389 20.4984C54.4389 19.365 54.6523 18.385 55.0789 17.5584C55.5189 16.7184 56.1323 16.0717 56.9189 15.6184C57.7189 15.1517 58.6456 14.9184 59.6989 14.9184C60.7523 14.9184 61.6723 15.1517 62.4589 15.6184C63.2456 16.0717 63.8523 16.7184 64.2789 17.5584C64.7189 18.385 64.9389 19.365 64.9389 20.4984C64.9389 21.6184 64.7189 22.5984 64.2789 23.4384C63.8523 24.2784 63.2456 24.9317 62.4589 25.3984C61.6723 25.8517 60.7523 26.0784 59.6989 26.0784ZM59.6989 23.9984C60.5256 23.9984 61.1589 23.6917 61.5989 23.0784C62.0523 22.465 62.2789 21.605 62.2789 20.4984C62.2789 19.405 62.0523 18.5517 61.5989 17.9384C61.1589 17.3117 60.5256 16.9984 59.6989 16.9984C58.8723 16.9984 58.2323 17.3117 57.7789 17.9384C57.3256 18.5517 57.0989 19.405 57.0989 20.4984C57.0989 21.605 57.3256 22.465 57.7789 23.0784C58.2323 23.6917 58.8723 23.9984 59.6989 23.9984ZM65.9144 25.8384V15.1584H68.2344L68.3144 17.7784L68.0744 17.6584C68.1944 17.085 68.4011 16.5984 68.6944 16.1984C69.0011 15.785 69.3677 15.4717 69.7944 15.2584C70.2344 15.0317 70.7144 14.9184 71.2344 14.9184C72.1411 14.9184 72.8744 15.1784 73.4344 15.6984C73.9944 16.205 74.3477 16.905 74.4944 17.7984H74.1544C74.2744 17.1717 74.4811 16.6517 74.7744 16.2384C75.0677 15.8117 75.4344 15.485 75.8744 15.2584C76.3277 15.0317 76.8344 14.9184 77.3944 14.9184C78.1277 14.9184 78.7611 15.0784 79.2944 15.3984C79.8277 15.705 80.2344 16.1584 80.5144 16.7584C80.8077 17.3584 80.9544 18.0984 80.9544 18.9784V25.8384H78.3944V19.6384C78.3944 18.7584 78.2411 18.0984 77.9344 17.6584C77.6411 17.2184 77.1877 16.9984 76.5744 16.9984C76.1611 16.9984 75.8077 17.105 75.5144 17.3184C75.2211 17.5317 74.9944 17.845 74.8344 18.2584C74.6877 18.6584 74.6144 19.145 74.6144 19.7184V25.8384H72.2344V19.7184C72.2344 18.8384 72.1011 18.165 71.8344 17.6984C71.5677 17.2317 71.1077 16.9984 70.4544 16.9984C70.0411 16.9984 69.6877 17.105 69.3944 17.3184C69.1144 17.5317 68.8877 17.845 68.7144 18.2584C68.5544 18.6584 68.4744 19.145 68.4744 19.7184V25.8384H65.9144ZM87.1325 26.0784C86.0792 26.0784 85.1525 25.8517 84.3525 25.3984C83.5659 24.9317 82.9525 24.2784 82.5125 23.4384C82.0859 22.5984 81.8725 21.6184 81.8725 20.4984C81.8725 19.365 82.0859 18.385 82.5125 17.5584C82.9525 16.7184 83.5659 16.0717 84.3525 15.6184C85.1525 15.1517 86.0792 14.9184 87.1325 14.9184C88.1859 14.9184 89.1059 15.1517 89.8925 15.6184C90.6792 16.0717 91.2859 16.7184 91.7125 17.5584C92.1525 18.385 92.3725 19.365 92.3725 20.4984C92.3725 21.6184 92.1525 22.5984 91.7125 23.4384C91.2859 24.2784 90.6792 24.9317 89.8925 25.3984C89.1059 25.8517 88.1859 26.0784 87.1325 26.0784ZM87.1325 23.9984C87.9592 23.9984 88.5925 23.6917 89.0325 23.0784C89.4859 22.465 89.7125 21.605 89.7125 20.4984C89.7125 19.405 89.4859 18.5517 89.0325 17.9384C88.5925 17.3117 87.9592 16.9984 87.1325 16.9984C86.3059 16.9984 85.6659 17.3117 85.2125 17.9384C84.7592 18.5517 84.5325 19.405 84.5325 20.4984C84.5325 21.605 84.7592 22.465 85.2125 23.0784C85.6659 23.6917 86.3059 23.9984 87.1325 23.9984ZM97.2569 25.8384C96.1902 25.8384 95.4036 25.5917 94.8969 25.0984C94.4036 24.605 94.1569 23.8317 94.1569 22.7784V12.6584H96.7169V22.5384C96.7169 23.0317 96.8236 23.3784 97.0369 23.5784C97.2502 23.765 97.5836 23.8584 98.0369 23.8584H99.5369V25.8384H97.2569ZM92.4769 17.1384V15.1584H99.5369V17.1384H92.4769ZM99.6678 25.8384L104.788 11.6384H107.968L113.088 25.8384H110.368L109.188 22.4784H103.568L102.388 25.8384H99.6678ZM104.328 20.2584H108.428L106.388 14.2584L104.328 20.2584ZM113.477 25.8384V15.1584H115.797L115.877 17.7784L115.637 17.6584C115.757 17.085 115.964 16.5984 116.257 16.1984C116.564 15.785 116.93 15.4717 117.357 15.2584C117.797 15.0317 118.277 14.9184 118.797 14.9184C119.704 14.9184 120.437 15.1784 120.997 15.6984C121.557 16.205 121.91 16.905 122.057 17.7984H121.717C121.837 17.1717 122.044 16.6517 122.337 16.2384C122.63 15.8117 122.997 15.485 123.437 15.2584C123.89 15.0317 124.397 14.9184 124.957 14.9184C125.69 14.9184 126.324 15.0784 126.857 15.3984C127.39 15.705 127.797 16.1584 128.077 16.7584C128.37 17.3584 128.517 18.0984 128.517 18.9784V25.8384H125.957V19.6384C125.957 18.7584 125.804 18.0984 125.497 17.6584C125.204 17.2184 124.75 16.9984 124.137 16.9984C123.724 16.9984 123.37 17.105 123.077 17.3184C122.784 17.5317 122.557 17.845 122.397 18.2584C122.25 18.6584 122.177 19.145 122.177 19.7184V25.8384H119.797V19.7184C119.797 18.8384 119.664 18.165 119.397 17.6984C119.13 17.2317 118.67 16.9984 118.017 16.9984C117.604 16.9984 117.25 17.105 116.957 17.3184C116.677 17.5317 116.45 17.845 116.277 18.2584C116.117 18.6584 116.037 19.145 116.037 19.7184V25.8384H113.477Z" fill="white"/>
</svg>
