<svg xmlns="http://www.w3.org/2000/svg" width="1440" height="1302" viewBox="0 0 1440 1302" fill="none">
  <path d="M-343.435 537.663C-225.65 515.272 -107.872 492.882 17.2627 502.46C142.398 512.037 274.87 553.565 398.803 557.913C522.735 562.26 638.108 529.41 751.163 486.447C864.219 443.484 974.942 390.411 1080.6 315.259C1186.25 240.108 1286.82 142.862 1405.86 125.94C1524.9 109.018 1662.4 172.404 1799.91 235.787L1929.13 797.856C1812.37 824.701 1695.62 851.543 1578.86 878.388C1462.09 905.232 1345.34 932.075 1228.58 958.919C1111.82 985.764 995.065 1012.61 878.303 1039.45C761.542 1066.29 644.788 1093.14 528.027 1119.98C411.266 1146.83 294.512 1173.67 177.751 1200.51C60.9896 1227.36 -55.764 1254.2 -172.525 1281.04L-343.435 537.663Z" fill="url(#paint0_linear_6912_2466)" fill-opacity="0.05"/>
  <path d="M-328.845 601.123C-213.053 570.065 -97.2656 539.018 13.0941 484.329C123.454 429.64 228.375 351.333 344.612 322.207C460.849 293.081 588.385 313.141 707.394 296.07C826.402 278.998 936.864 224.789 1053.5 197.407C1170.14 170.025 1292.94 169.472 1416.28 171.269C1539.63 173.066 1663.51 177.236 1787.4 181.394L1929.13 797.857C1812.37 824.702 1695.62 851.544 1578.86 878.389C1462.09 905.233 1345.34 932.076 1228.58 958.92C1111.82 985.764 995.064 1012.61 878.303 1039.45C761.542 1066.3 644.788 1093.14 528.027 1119.98C411.266 1146.83 294.512 1173.67 177.751 1200.51C60.9896 1227.36 -55.764 1254.2 -172.525 1281.05L-328.845 601.123Z" fill="url(#paint1_linear_6912_2466)" fill-opacity="0.05"/>
  <path d="M-270.486 854.961C-149.889 844.803 -29.2963 834.657 96.4639 846.955C222.224 859.252 353.142 894.016 465.498 848.014C577.855 802.012 671.641 675.268 786.595 640.564C901.549 605.859 1037.66 663.217 1163.97 677.886C1290.27 692.554 1406.76 664.556 1522.58 633.617C1638.4 602.678 1753.54 568.822 1868.69 534.954L1929.13 797.857C1812.37 824.702 1695.62 851.544 1578.85 878.389C1462.09 905.233 1345.34 932.076 1228.58 958.92C1111.82 985.764 995.064 1012.61 878.303 1039.45C761.541 1066.3 644.788 1093.14 528.026 1119.98C411.265 1146.83 294.511 1173.67 177.75 1200.51C60.9889 1227.36 -55.7647 1254.2 -172.526 1281.05L-270.486 854.961Z" fill="url(#paint2_linear_6912_2466)" fill-opacity="0.05"/>
  <path d="M-210.042 1117.86C-90.5896 1102.73 28.8552 1087.59 140.234 1037.33C251.613 987.078 354.913 901.717 469.668 866.146C584.422 830.575 710.617 844.796 828.281 821.877C945.945 798.958 1055.06 738.911 1166.05 686.952C1277.04 634.993 1389.88 591.125 1510.07 579.224C1630.27 567.323 1757.81 587.402 1885.36 607.48L1929.13 797.858C1812.37 824.702 1695.62 851.545 1578.86 878.389C1462.09 905.234 1345.34 932.076 1228.58 958.921C1111.82 985.765 995.064 1012.61 878.303 1039.45C761.542 1066.3 644.788 1093.14 528.027 1119.98C411.266 1146.83 294.512 1173.67 177.751 1200.51C60.9895 1227.36 -55.7641 1254.2 -172.525 1281.05L-210.042 1117.86Z" fill="url(#paint3_linear_6912_2466)" fill-opacity="0.05"/>
  <path d="M-327.179 1020.71C-203.647 1000.41 -80.1248 980.096 46.442 972.993C173.009 965.889 302.603 971.987 428.4 961.536C554.197 951.085 676.18 924.079 799.936 904.751C923.693 885.424 1049.2 873.759 1173.56 857.032C1297.91 840.305 1421.09 818.509 1536.76 763.985C1652.42 709.461 1760.55 622.203 1868.69 534.953L1929.14 797.856C1807.37 825.851 1685.62 853.843 1563.85 881.838C1442.09 909.832 1320.33 937.825 1198.57 965.82C1076.8 993.814 955.048 1021.81 833.285 1049.8C711.521 1077.8 589.765 1105.79 468.001 1133.78C346.237 1161.78 224.481 1189.77 102.717 1217.76C-19.0468 1245.76 -140.803 1273.75 -262.567 1301.75L-327.179 1020.71Z" fill="url(#paint4_linear_6912_2466)" fill-opacity="0.05"/>
  <defs>
    <linearGradient id="paint0_linear_6912_2466" x1="705.092" y1="286.058" x2="878.303" y2="1039.45" gradientUnits="userSpaceOnUse">
      <stop stop-color="#FAB8FF" stop-opacity="0.6"/>
      <stop offset="1" stop-color="#0D1134" stop-opacity="0"/>
    </linearGradient>
    <linearGradient id="paint1_linear_6912_2466" x1="694.869" y1="241.595" x2="878.303" y2="1039.45" gradientUnits="userSpaceOnUse">
      <stop stop-color="#FAB8FF" stop-opacity="0.6"/>
      <stop offset="1" stop-color="#0D1134" stop-opacity="0"/>
    </linearGradient>
    <linearGradient id="paint2_linear_6912_2466" x1="780.342" y1="613.367" x2="878.303" y2="1039.45" gradientUnits="userSpaceOnUse">
      <stop stop-color="#FAB8FF" stop-opacity="0.6"/>
      <stop offset="1" stop-color="#0D1134" stop-opacity="0"/>
    </linearGradient>
    <linearGradient id="paint3_linear_6912_2466" x1="808.237" y1="734.694" x2="878.303" y2="1039.45" gradientUnits="userSpaceOnUse">
      <stop stop-color="#FAB8FF" stop-opacity="0.6"/>
      <stop offset="1" stop-color="#0D1134" stop-opacity="0"/>
    </linearGradient>
    <linearGradient id="paint4_linear_6912_2466" x1="768.672" y1="768.767" x2="833.284" y2="1049.8" gradientUnits="userSpaceOnUse">
      <stop stop-color="#FAB8FF" stop-opacity="0.6"/>
      <stop offset="1" stop-color="#0D1134" stop-opacity="0"/>
    </linearGradient>
  </defs>
</svg>
